<svg width="159" height="44" viewBox="0 0 159 44" fill="none" xmlns="http://www.w3.org/2000/svg">
<path d="M13.932 36.612C12.972 36.612 12.132 36.408 11.412 36C10.716 35.616 10.368 34.932 10.368 33.948C10.368 33.324 10.524 32.628 10.836 31.86C11.268 32.34 11.664 32.676 12.024 32.868C12.408 33.06 12.816 33.156 13.248 33.156C14.448 33.156 15.336 32.484 15.912 31.14C16.512 29.796 16.812 28.308 16.812 26.676C16.812 23.628 15.672 22.104 13.392 22.104C12.744 22.104 12.192 22.14 11.736 22.212L8.784 36H3.6L8.496 13.104L13.824 12.384L12.132 20.376H12.348C13.26 20.376 14.112 20.088 14.904 19.512C15.696 18.912 16.332 18.168 16.812 17.28C17.292 16.368 17.532 15.456 17.532 14.544C17.532 13.44 17.136 12.516 16.344 11.772C15.576 11.028 14.388 10.656 12.78 10.656C11.316 10.656 9.888 10.992 8.496 11.664C7.104 12.312 5.964 13.296 5.076 14.616C4.212 15.936 3.78 17.532 3.78 19.404C3.78 20.292 3.864 20.916 4.032 21.276C4.2 21.612 4.284 21.804 4.284 21.852C3.012 21.852 2.052 21.6 1.404 21.096C0.756 20.568 0.432 19.716 0.432 18.54C0.432 16.908 1.044 15.36 2.268 13.896C3.492 12.432 5.112 11.256 7.128 10.368C9.144 9.456 11.268 9 13.5 9C15.18 9 16.596 9.264 17.748 9.792C18.9 10.32 19.752 11.016 20.304 11.88C20.88 12.744 21.168 13.692 21.168 14.724C21.168 15.828 20.856 16.896 20.232 17.928C19.608 18.96 18.72 19.8 17.568 20.448C19.008 20.712 20.076 21.384 20.772 22.464C21.468 23.52 21.816 24.78 21.816 26.244C21.816 27.612 21.552 29.1 21.024 30.708C20.52 32.316 19.668 33.708 18.468 34.884C17.292 36.036 15.78 36.612 13.932 36.612ZM28.7105 36.216C26.9345 36.216 25.5545 35.76 24.5705 34.848C23.5865 33.912 23.0945 32.46 23.0945 30.492C23.0945 28.836 23.4185 27.012 24.0665 25.02C24.7145 23.028 25.7705 21.312 27.2345 19.872C28.6985 18.408 30.5585 17.676 32.8145 17.676C35.4545 17.676 36.7745 18.828 36.7745 21.132C36.7745 22.476 36.3905 23.712 35.6225 24.84C34.8545 25.968 33.8345 26.88 32.5625 27.576C31.2905 28.248 29.9345 28.632 28.4945 28.728C28.4465 29.448 28.4225 29.928 28.4225 30.168C28.4225 31.344 28.6265 32.148 29.0345 32.58C29.4425 32.988 30.1025 33.192 31.0145 33.192C32.3105 33.192 33.4145 32.892 34.3265 32.292C35.2625 31.692 36.2825 30.78 37.3865 29.556H38.6105C35.9465 33.996 32.6465 36.216 28.7105 36.216ZM28.7825 27C29.6705 26.952 30.5105 26.64 31.3025 26.064C32.1185 25.488 32.7665 24.756 33.2465 23.868C33.7505 22.98 34.0025 22.044 34.0025 21.06C34.0025 20.076 33.7025 19.584 33.1025 19.584C32.2385 19.584 31.3865 20.34 30.5465 21.852C29.7305 23.364 29.1425 25.08 28.7825 27ZM55.0036 11.52C53.3956 12.192 52.1476 13.2 51.2596 14.544C50.3956 15.888 49.9636 17.508 49.9636 19.404C49.9636 20.292 50.0476 20.916 50.2156 21.276C50.3836 21.612 50.4676 21.804 50.4676 21.852C49.1716 21.852 48.1996 21.588 47.5516 21.06C46.9276 20.508 46.6156 19.608 46.6156 18.36C46.6156 16.824 47.2396 15.336 48.4876 13.896C49.7596 12.432 51.3796 11.256 53.3476 10.368C55.3156 9.456 57.2836 9 59.2516 9C59.5876 9 60.0676 9.024 60.6916 9.072L58.3876 19.8H63.6796L65.9836 9.072H71.1676L65.4436 36H60.2596L63.1396 22.464H57.8476L54.9676 36H49.7836L55.0036 11.52ZM74.189 36.216C73.037 36.216 72.101 35.856 71.381 35.136C70.685 34.416 70.337 33.336 70.337 31.896C70.337 31.296 70.433 30.516 70.625 29.556L73.073 18H78.257L75.665 30.24C75.593 30.6 75.557 30.936 75.557 31.248C75.557 32.232 75.917 32.724 76.637 32.724C77.309 32.724 77.885 32.448 78.365 31.896C78.845 31.32 79.229 30.54 79.517 29.556L81.965 18H87.149L84.557 30.24C84.461 30.6 84.413 30.984 84.413 31.392C84.413 31.872 84.521 32.22 84.737 32.436C84.977 32.628 85.361 32.724 85.889 32.724C86.561 32.724 87.137 32.436 87.617 31.86C88.121 31.284 88.517 30.516 88.805 29.556H90.317C89.429 32.148 88.325 33.912 87.005 34.848C85.709 35.76 84.401 36.216 83.081 36.216C82.049 36.216 81.221 35.928 80.597 35.352C79.997 34.776 79.637 33.924 79.517 32.796C78.701 34.116 77.837 35.016 76.925 35.496C76.037 35.976 75.125 36.216 74.189 36.216ZM111.189 36.216C109.725 36.216 108.645 35.832 107.949 35.064C107.277 34.272 106.941 33.3 106.941 32.148C106.941 31.644 107.001 31.08 107.121 30.456C107.241 29.808 107.361 29.184 107.481 28.584C107.625 27.984 107.721 27.6 107.769 27.432C107.961 26.592 108.141 25.764 108.309 24.948C108.477 24.132 108.561 23.472 108.561 22.968C108.561 21.744 108.129 21.132 107.265 21.132C106.641 21.132 106.089 21.444 105.609 22.068C105.129 22.668 104.745 23.46 104.457 24.444L102.009 36H96.8248L99.4528 23.58C99.5248 23.292 99.5608 22.992 99.5608 22.68C99.5608 21.624 99.2008 21.096 98.4808 21.096C97.8088 21.096 97.2208 21.408 96.7168 22.032C96.2368 22.632 95.8528 23.436 95.5648 24.444L93.1168 36H87.9328L91.7488 18H96.9328L96.5368 19.872C97.7608 18.504 99.2248 17.82 100.929 17.82C103.041 17.82 104.277 18.852 104.637 20.916C105.957 18.876 107.625 17.856 109.641 17.856C110.865 17.856 111.837 18.192 112.557 18.864C113.277 19.536 113.637 20.556 113.637 21.924C113.637 22.62 113.553 23.4 113.385 24.264C113.217 25.104 112.977 26.136 112.665 27.36C112.473 28.104 112.293 28.836 112.125 29.556C111.981 30.252 111.909 30.804 111.909 31.212C111.909 31.692 112.017 32.064 112.233 32.328C112.449 32.592 112.821 32.724 113.349 32.724C114.069 32.724 114.645 32.472 115.077 31.968C115.509 31.44 115.941 30.636 116.373 29.556H117.885C116.997 32.196 115.965 33.972 114.789 34.884C113.637 35.772 112.437 36.216 111.189 36.216ZM121.659 36.216C120.027 36.216 118.779 35.82 117.915 35.028C117.051 34.212 116.619 33.072 116.619 31.608C116.619 30.888 116.703 30.204 116.871 29.556L120.723 11.52L126.051 10.8L124.323 18.9C124.995 18.492 125.547 18.228 125.979 18.108C126.411 17.964 126.843 17.892 127.275 17.892C130.107 17.892 131.523 19.944 131.523 24.048C131.523 25.704 131.199 27.48 130.551 29.376C129.927 31.248 128.871 32.856 127.383 34.2C125.919 35.544 124.011 36.216 121.659 36.216ZM123.675 32.724C124.419 32.724 125.115 32.268 125.763 31.356C126.411 30.42 126.927 29.268 127.311 27.9C127.695 26.508 127.887 25.176 127.887 23.904C127.887 22.944 127.719 22.128 127.383 21.456C127.047 20.784 126.579 20.448 125.979 20.448C125.619 20.448 125.211 20.508 124.755 20.628C124.323 20.724 124.023 20.88 123.855 21.096L121.875 30.24C121.803 30.528 121.767 30.804 121.767 31.068C121.767 32.172 122.403 32.724 123.675 32.724ZM136.931 36.216C135.779 36.216 134.843 35.856 134.123 35.136C133.427 34.416 133.079 33.336 133.079 31.896C133.079 31.296 133.175 30.516 133.367 29.556L137.219 11.52L142.547 10.8L138.407 30.24C138.311 30.6 138.263 30.984 138.263 31.392C138.263 31.872 138.371 32.22 138.587 32.436C138.827 32.628 139.211 32.724 139.739 32.724C140.435 32.724 141.083 32.436 141.683 31.86C142.283 31.26 142.715 30.492 142.979 29.556H144.491C143.603 32.148 142.463 33.912 141.071 34.848C139.679 35.76 138.299 36.216 136.931 36.216ZM148.613 36.216C146.837 36.216 145.457 35.76 144.473 34.848C143.489 33.912 142.997 32.46 142.997 30.492C142.997 28.836 143.321 27.012 143.969 25.02C144.617 23.028 145.673 21.312 147.137 19.872C148.601 18.408 150.461 17.676 152.717 17.676C155.357 17.676 156.677 18.828 156.677 21.132C156.677 22.476 156.293 23.712 155.525 24.84C154.757 25.968 153.737 26.88 152.465 27.576C151.193 28.248 149.837 28.632 148.397 28.728C148.349 29.448 148.325 29.928 148.325 30.168C148.325 31.344 148.529 32.148 148.937 32.58C149.345 32.988 150.005 33.192 150.917 33.192C152.213 33.192 153.317 32.892 154.229 32.292C155.165 31.692 156.185 30.78 157.289 29.556H158.513C155.849 33.996 152.549 36.216 148.613 36.216ZM148.685 27C149.573 26.952 150.413 26.64 151.205 26.064C152.021 25.488 152.669 24.756 153.149 23.868C153.653 22.98 153.905 22.044 153.905 21.06C153.905 20.076 153.605 19.584 153.005 19.584C152.141 19.584 151.289 20.34 150.449 21.852C149.633 23.364 149.045 25.08 148.685 27Z" fill="#FF5959"/>
</svg>
